<?xml version="1.0" encoding="utf-8"?>
<!-- Generator: Adobe Illustrator 17.1.0, SVG Export Plug-In . SVG Version: 6.00 Build 0)  -->
<!DOCTYPE svg PUBLIC "-//W3C//DTD SVG 1.1//EN" "http://www.w3.org/Graphics/SVG/1.1/DTD/svg11.dtd">
<svg version="1.1" id="Layer_1" xmlns="http://www.w3.org/2000/svg" xmlns:xlink="http://www.w3.org/1999/xlink" x="0px" y="0px"
	 viewBox="0 0 112.924 112.972" enable-background="new 0 0 112.924 112.972" xml:space="preserve">
<g>
	<polygon fill="#A62317" points="96.107,96.676 86.621,96.874 83.759,105.92 74.571,103.551 69.374,111.49 61.166,106.729 
		54.021,112.972 47.402,106.173 38.837,110.257 34.297,101.924 24.948,103.545 22.825,94.298 13.385,93.336 13.836,83.858 
		5.006,80.386 7.997,71.381 0.431,65.655 5.74,57.791 0,50.236 7.234,44.096 3.745,35.272 12.368,31.312 11.388,21.874 
		20.76,20.387 22.363,11.035 31.788,12.132 35.855,3.559 44.635,7.157 50.864,0 58.347,5.834 66.276,0.622 71.908,8.259 
		80.949,5.38 84.312,14.253 93.794,13.92 94.639,23.371 103.859,25.608 102.122,34.937 110.397,39.579 106.208,48.093 
		112.924,54.796 106.593,61.863 111.251,70.13 103.248,75.227 105.503,84.444 96.422,87.193 	"/>
</g>
<circle fill="#FFFFFF" cx="56.59" cy="56.642" r="48.333"/>
<circle fill="#A62317" cx="56.423" cy="56.808" r="44.167"/>
<circle fill="none" stroke="#FFFFFF" stroke-width="0.9057" stroke-miterlimit="10" cx="56.256" cy="56.975" r="40"/>
<g>
	<path fill="#FFFFFF" d="M21.555,65.008l-1.583-6.482l2.234-0.545l0.386,1.58c1.543,1.681,3.18,2.311,4.908,1.889
		c0.881-0.215,1.561-0.667,2.036-1.355c0.476-0.687,0.607-1.467,0.394-2.34c-0.207-0.847-0.604-1.396-1.191-1.647
		s-1.614-0.393-3.082-0.424c-1.705-0.037-2.988-0.151-3.852-0.345c-0.863-0.193-1.61-0.586-2.24-1.18
		c-0.631-0.594-1.064-1.375-1.3-2.342c-0.366-1.497-0.159-2.815,0.619-3.953c0.779-1.137,1.921-1.89,3.427-2.258
		c1.429-0.349,2.868-0.211,4.317,0.415l-0.291-1.193l2.182-0.533l1.323,5.417l-2.183,0.533l-0.304-1.246
		c-1.253-1.153-2.683-1.534-4.291-1.141c-0.976,0.238-1.67,0.646-2.082,1.221c-0.413,0.578-0.542,1.179-0.39,1.803
		c0.117,0.479,0.353,0.869,0.707,1.167c0.354,0.299,0.757,0.483,1.21,0.555c0.453,0.071,1.319,0.112,2.602,0.125
		c1.674,0.025,2.911,0.128,3.708,0.311c0.796,0.182,1.553,0.625,2.269,1.33c0.717,0.705,1.206,1.596,1.469,2.675
		c0.372,1.523,0.142,2.913-0.689,4.169c-0.832,1.254-2.039,2.076-3.622,2.462c-1.626,0.396-3.232,0.167-4.819-0.688l0.36,1.476
		L21.555,65.008z"/>
	<path fill="#FFFFFF" d="M39.452,60.856l-5.884-9.647l-1.515,0.37l-0.529-2.17l5.236-1.278l0.53,2.17l-1.627,0.397l4.208,6.915
		l0.544-8.075l-1.354,0.331l-0.53-2.17l6.008-1.467l0.529,2.17l-1.367,0.334l4.205,6.915l0.554-8.077l-1.71,0.418l-0.53-2.17
		l5.609-1.37l0.53,2.17l-1.784,0.436L49.797,58.33l-2.296,0.561l-5.043-8.289l-0.707,9.692L39.452,60.856z"/>
	<path fill="#FFFFFF" d="M66.937,47.999L56.488,50.55c0.434,1.108,1.114,1.926,2.04,2.453c0.927,0.526,1.976,0.647,3.148,0.36
		c1.703-0.416,2.884-1.43,3.542-3.041l2.388,0.422c-0.437,1.258-1.151,2.288-2.143,3.087c-0.993,0.799-2.101,1.349-3.324,1.648
		c-1.899,0.464-3.668,0.267-5.306-0.588c-1.637-0.855-2.701-2.289-3.192-4.3c-0.466-1.909-0.193-3.639,0.82-5.192
		c1.013-1.553,2.371-2.538,4.074-2.953c1.668-0.407,3.328-0.175,4.977,0.696C65.163,44.014,66.304,45.632,66.937,47.999z
		 M63.988,46.842c-0.384-0.831-1.031-1.509-1.938-2.036c-0.909-0.527-1.897-0.66-2.968-0.398c-0.976,0.238-1.731,0.76-2.27,1.567
		c-0.537,0.807-0.76,1.735-0.667,2.782L63.988,46.842z"/>
	<path fill="#FFFFFF" d="M82.007,44.32l-10.449,2.551c0.435,1.109,1.114,1.926,2.04,2.453c0.927,0.526,1.976,0.647,3.149,0.36
		c1.702-0.416,2.883-1.43,3.542-3.041l2.388,0.423c-0.437,1.258-1.151,2.287-2.144,3.087c-0.993,0.799-2.101,1.349-3.324,1.647
		c-1.9,0.464-3.668,0.268-5.306-0.588s-2.702-2.29-3.192-4.3c-0.466-1.909-0.192-3.639,0.821-5.192
		c1.012-1.553,2.37-2.538,4.073-2.954c1.668-0.407,3.328-0.175,4.978,0.696C80.233,40.335,81.374,41.953,82.007,44.32z
		 M79.058,43.163c-0.384-0.831-1.03-1.509-1.938-2.036c-0.909-0.527-1.897-0.66-2.967-0.398c-0.976,0.238-1.732,0.76-2.271,1.567
		c-0.537,0.807-0.759,1.735-0.667,2.782L79.058,43.163z"/>
	<path fill="#FFFFFF" d="M82.64,39.229l-0.529-2.17l1.617-0.395l-0.467-1.913l1.894-2.828l1.012,4.146l2.298-0.561l0.529,2.17
		l-2.297,0.561l1.473,6.032c0.236,0.967,0.435,1.55,0.598,1.751c0.162,0.202,0.457,0.25,0.885,0.145
		c0.454-0.111,0.878-0.305,1.272-0.583l0.542,2.221c-0.57,0.375-1.168,0.638-1.792,0.791c-0.745,0.182-1.389,0.165-1.931-0.051
		c-0.543-0.217-0.935-0.559-1.176-1.026s-0.51-1.308-0.807-2.524l-1.504-6.16L82.64,39.229z"/>
	<path fill="#FFFFFF" d="M35.253,81.731l-3.269-13.389l-2.195,0.536l-0.545-2.233l5.943-1.451c1.635-0.399,2.884-0.599,3.75-0.602
		c0.866-0.002,1.708,0.32,2.528,0.967c0.819,0.648,1.361,1.51,1.625,2.588c0.203,0.83,0.2,1.624-0.009,2.382
		c-0.21,0.758-0.632,1.397-1.268,1.914c1.076,0.101,1.979,0.48,2.707,1.142s1.216,1.5,1.465,2.519
		c0.215,0.881,0.211,1.729-0.011,2.546c-0.223,0.815-0.615,1.501-1.178,2.056c-0.563,0.554-1.219,0.995-1.968,1.324
		c-0.749,0.328-1.801,0.657-3.152,0.987L33.604,84.5l-0.545-2.233L35.253,81.731z M35.949,72.883l1.682-0.41
		c1.283-0.313,2.125-0.757,2.524-1.332c0.4-0.573,0.493-1.296,0.28-2.169c-0.414-1.694-1.771-2.261-4.073-1.699l-1.681,0.41
		L35.949,72.883z M37.949,81.073l1.014-0.248c1.326-0.324,2.282-0.627,2.865-0.911c0.584-0.283,1.01-0.718,1.279-1.306
		c0.27-0.586,0.311-1.265,0.123-2.035c-0.172-0.702-0.502-1.245-0.989-1.629c-0.488-0.384-1.045-0.583-1.67-0.599
		c-0.625-0.015-1.472,0.109-2.542,0.37l-1.541,0.376L37.949,81.073z"/>
	<path fill="#FFFFFF" d="M62.352,75.182l0.53,2.17l-4.583,1.119l-0.348-1.426c-1.164,1.437-2.4,2.313-3.709,2.632
		c-0.83,0.203-1.561,0.19-2.193-0.042c-0.632-0.23-1.109-0.613-1.429-1.147c-0.32-0.534-0.638-1.442-0.951-2.727l-1.395-5.711
		l-1.758,0.43l-0.53-2.17l4.198-1.025l1.849,7.573c0.224,0.916,0.399,1.525,0.527,1.83c0.129,0.304,0.343,0.528,0.641,0.673
		c0.298,0.146,0.636,0.172,1.013,0.08c1.129-0.276,2.204-1.109,3.225-2.5l-1.642-6.726l-2.195,0.536l-0.53-2.17l4.634-1.131
		l2.503,10.256L62.352,75.182z"/>
	<path fill="#FFFFFF" d="M65.432,63.563l0.367,1.502c1.29-1.512,2.582-2.425,3.874-2.741c0.804-0.196,1.516-0.168,2.135,0.084
		c0.62,0.252,1.078,0.634,1.375,1.147c0.297,0.512,0.576,1.299,0.834,2.359l1.479,6.059l2.092-0.511l0.53,2.17l-4.531,1.106
		l-1.984-8.125c-0.23-0.942-0.521-1.521-0.873-1.739c-0.353-0.217-0.734-0.276-1.145-0.176c-1.078,0.263-2.169,1.086-3.272,2.472
		l1.623,6.648l2.144-0.523l0.529,2.17l-6.765,1.651l-0.529-2.17l2.182-0.533l-1.974-8.086l-2.182,0.533l-0.53-2.17L65.432,63.563z"
		/>
	<path fill="#FFFFFF" d="M79.286,73.347l-1.04-4.262l2.182-0.533l0.1,0.41c0.22,0.564,0.651,0.966,1.294,1.208
		c0.644,0.242,1.343,0.271,2.096,0.087c0.787-0.192,1.383-0.482,1.787-0.872c0.403-0.388,0.546-0.827,0.427-1.314
		c-0.115-0.471-0.395-0.771-0.838-0.897c-0.444-0.127-1.267-0.144-2.468-0.048c-1.782,0.128-3.118-0.042-4.007-0.509
		c-0.889-0.468-1.459-1.216-1.71-2.244c-0.253-1.036-0.067-2,0.559-2.892c0.625-0.893,1.588-1.497,2.889-1.815
		c1.173-0.286,2.241-0.29,3.206-0.016l-0.129-0.531l2.169-0.53l1.006,4.12l-2.169,0.53l-0.185-0.757
		c-0.907-0.856-1.99-1.133-3.248-0.825c-0.642,0.156-1.136,0.425-1.484,0.804c-0.347,0.38-0.464,0.8-0.352,1.262
		c0.115,0.471,0.385,0.748,0.808,0.83c0.423,0.083,1.289,0.068,2.594-0.043c1.252-0.106,2.217-0.109,2.896-0.007
		c0.678,0.103,1.291,0.396,1.84,0.884c0.55,0.488,0.92,1.12,1.11,1.899c0.282,1.155,0.063,2.182-0.656,3.078
		c-0.719,0.898-1.785,1.518-3.197,1.862c-1.326,0.323-2.482,0.287-3.468-0.11l0.17,0.698L79.286,73.347z"/>
</g>
<g>
	<path fill="#FFFFFF" d="M48.66,82.612c0.154-0.038,0.237,0.104,0.298,0.352c0.669,2.742-1.864,5.4-1.684,6.139
		c0.098,0.4,1.621,0.959,2.206,0.816c0.725-0.177,0.862-0.749,0.727-1.303c-0.293,0.071-0.739,0.115-1.134,0.031
		c-0.224-0.042-0.392-0.133-0.438-0.317c-0.037-0.153,0.122-1.042,0.445-1.121c0.416-0.102,1.291,0.876,1.861,0.737
		c0.247-0.06,0.409-0.197,0.486-0.216c0.062-0.015,0.084,0.013,0.096,0.058c0.019,0.077-0.086,0.185-0.26,0.34
		c-0.12,0.111-0.444,0.321-0.81,0.427c0.061,0.115,0.095,0.254,0.128,0.393c0.083,0.339-0.282,1.651-1.637,1.982
		c-0.74,0.181-1.93-0.083-2.17-1.07C46.508,88.767,48.276,82.706,48.66,82.612z"/>
	<path fill="#FFFFFF" d="M54.898,86.034c0.339-0.083,0.473-0.067,0.657-0.046c0.002-0.327,0.02-0.658,0.327-0.733
		c0.216-0.053,0.415,0.094,0.475,0.341c0.015,0.062,0.016,0.534,0.054,0.688c0.037,0.154,0.584,0.119,0.749,0.796l0.102,0.416
		c0.042,0.17,0.122,0.231,0.245,0.201c0.416-0.102,1.271-1.143,1.363-1.165c0.062-0.015,0.131,0.065,0.149,0.144
		c0.034,0.139-1.465,2.087-2.358,2.305c-0.308,0.075-0.614-0.045-0.693-0.369c-0.136-0.555,0.324-1.076,0.234-1.444
		c-0.03-0.124-0.103-0.155-0.18-0.136c-0.062,0.015-0.131,0.13-0.205,0.229c-0.596,0.7-1.683,2.401-2.53,2.607
		c-0.462,0.113-0.917-0.15-1.035-0.628C51.994,88.179,53.435,86.391,54.898,86.034z M55.713,86.634
		c-0.06-0.246-0.163-0.467-0.548-0.373c-1.278,0.312-1.804,1.501-1.688,1.979c0.034,0.139,0.224,0.452,0.594,0.361
		C54.488,88.501,55.837,87.143,55.713,86.634z"/>
	<path fill="#FFFFFF" d="M61.767,79.412c0.154-0.038,0.304,0.041,0.349,0.224c0.127,0.524-0.047,1.611-0.525,2.528
		c-0.485,0.952-0.921,1.84-1.304,2.815c-0.21,0.541-0.262,0.732-0.197,0.994c0.033,0.139,0.327,0.541,0.497,0.5
		c0.092-0.022,0.108-0.092,0.16-0.218c0.791-1.973,1.139-2.955,2.032-3.173c0.523-0.128,0.69,0.224,0.72,0.347
		c0.166,0.678-0.833,1.068-1.352,1.276c-0.147,0.069-0.301,0.106-0.282,0.184c0.022,0.092,0.123,0.166,0.203,0.228l0.856,0.705
		c0.815,0.666,0.854,0.689,1.085,0.633c0.555-0.135,1.188-1.22,1.326-1.254c0.107-0.026,0.153,0.027,0.165,0.074
		c0.023,0.093-0.051,0.192-0.097,0.269c-0.275,0.475-1.275,1.861-1.861,2.004c-0.154,0.038-0.461,0.047-0.997-0.475l-1.114-1.083
		c-0.042-0.039-0.118-0.15-0.179-0.135c-0.093,0.023-0.199,0.521-0.349,1.047c-0.156,0.496-0.306,1.021-0.675,1.112
		c-0.354,0.086-0.687-0.273-0.841-0.905C59.101,85.937,60.874,79.63,61.767,79.412z"/>
	<path fill="#FFFFFF" d="M69.082,82.636c0.214,0.878-0.802,1.599-2.25,2.149c0.361,0.744,1.462,0.441,1.647,0.396
		c1.108-0.271,1.88-1.324,2.019-1.358c0.093-0.022,0.107,0.04,0.123,0.102c0.022,0.092-0.055,0.241-0.16,0.348
		c-0.31,0.336-0.577,0.712-1.18,1.251c-0.359,0.333-0.653,0.599-1.316,0.761c-0.955,0.233-1.748-0.21-1.921-0.919
		c-0.274-1.124,1.297-2.911,2.313-3.159C68.665,82.133,69.003,82.313,69.082,82.636z M67.908,82.906
		c-0.631,0.154-1.086,0.967-1.143,1.602c0.436-0.156,1.652-0.584,1.465-1.354C68.218,83.108,68.124,82.854,67.908,82.906z"/>
	<path fill="#FFFFFF" d="M71.419,82.784l-0.345,0.524c-0.035,0.058-0.089,0.104-0.166,0.123c-0.078,0.019-0.116-0.005-0.15-0.078
		c-0.019-0.077,0.105-0.238,0.152-0.314l0.21-0.345c-0.074-0.031-0.154-0.093-0.181-0.202c-0.06-0.246,0.682-1.488,0.913-1.544
		c0.123-0.03,0.261,0.001,0.307,0.186c0.042,0.17-0.137,0.507-0.227,0.676c0.895,0.255,1.151,0.371,1.216,0.633
		c0.112,0.462-0.546,0.77-0.452,1.155c0.079,0.323,0.604,0.407,0.928,0.328c0.816-0.199,1.519-1.464,1.673-1.501
		c0.046-0.011,0.126-0.015,0.146,0.062c0.022,0.092-0.315,0.648-0.791,1.237c-0.46,0.586-1.034,1.183-1.572,1.314
		c-0.293,0.071-0.523-0.002-0.78-0.119c-0.245-0.136-0.452-0.314-0.497-0.5c-0.083-0.338,0.729-0.96,0.668-1.207
		c-0.019-0.077-0.118-0.151-0.275-0.194L71.419,82.784z"/>
	<path fill="#FFFFFF" d="M80.102,83.388c-0.059,0.096-0.555,1.67-0.847,2.214c-0.723,1.32-1.185,2.166-1.585,2.264
		c-0.2,0.049-0.36-0.075-0.398-0.23c-0.143-0.585,0.737-1.926,1.113-2.458c1.004-1.437,1.321-1.873,1.134-2.644
		c-0.068-0.276-0.271-0.504-0.425-0.466c-0.154,0.038-0.537,0.474-0.989,0.894c-0.479,0.444-0.804,0.784-1.158,0.871
		c-0.185,0.045-0.693,0.104-0.923-0.836c-0.09-0.369-0.068-0.686-0.014-0.796c0.454-0.878,1.04-1.821,1.163-1.851
		c0.046-0.011,0.139-0.034,0.184,0.151c0.034,0.139-0.625,0.985-0.467,1.632c0.136,0.554,0.616,0.584,0.848,0.528
		c0.909-0.222,2.315-2.279,2.531-2.332c0.154-0.038,0.222,0.174,0.263,0.344c0.053,0.216-0.002,1.191-0.179,1.871l0.038,0.022
		l0.833-1.198c0.182-0.256,0.267-0.375,0.36-0.397c0.062-0.015,0.139-0.034,0.161,0.058c0.022,0.093-0.051,0.192-0.148,0.329
		L80.102,83.388z"/>
</g>
</svg>
