<?xml version="1.0" encoding="utf-8"?>
<!-- Generator: Adobe Illustrator 17.1.0, SVG Export Plug-In . SVG Version: 6.00 Build 0)  -->
<!DOCTYPE svg PUBLIC "-//W3C//DTD SVG 1.1//EN" "http://www.w3.org/Graphics/SVG/1.1/DTD/svg11.dtd">
<svg version="1.1" id="Layer_1" xmlns="http://www.w3.org/2000/svg" xmlns:xlink="http://www.w3.org/1999/xlink" x="0px" y="0px"
	 viewBox="0 0 112.924 112.972" enable-background="new 0 0 112.924 112.972" xml:space="preserve">
<g>
	<polygon fill="#A62317" points="96.107,96.676 86.621,96.874 83.759,105.92 74.571,103.551 69.374,111.49 61.166,106.729 
		54.021,112.972 47.402,106.173 38.837,110.257 34.297,101.924 24.948,103.545 22.825,94.298 13.385,93.336 13.836,83.858 
		5.006,80.386 7.997,71.381 0.431,65.655 5.74,57.791 0,50.236 7.234,44.096 3.745,35.272 12.368,31.312 11.388,21.874 
		20.76,20.387 22.363,11.035 31.788,12.132 35.855,3.559 44.635,7.157 50.864,0 58.347,5.834 66.276,0.622 71.908,8.259 
		80.949,5.38 84.312,14.253 93.794,13.92 94.639,23.371 103.859,25.608 102.122,34.937 110.397,39.579 106.208,48.093 
		112.924,54.796 106.593,61.863 111.251,70.13 103.248,75.227 105.503,84.444 96.422,87.193 	"/>
</g>
<circle fill="#FFFFFF" cx="56.59" cy="56.642" r="48.333"/>
<circle fill="#A62317" cx="56.423" cy="56.808" r="44.167"/>
<circle fill="none" stroke="#FFFFFF" stroke-width="0.9057" stroke-miterlimit="10" cx="56.256" cy="56.975" r="40"/>
<text transform="matrix(0.9715 -0.2372 0.2372 0.9715 20.3163 65.3105)"><tspan x="0" y="0" fill="#FFFFFF" font-family="'Rockwell'" font-size="27.0598">Sweet</tspan><tspan x="7.749" y="21.793" fill="#FFFFFF" font-family="'Rockwell'" font-size="27.0598">Buns</tspan></text>
<text transform="matrix(0.9715 -0.2372 0.2372 0.9715 46.8742 91.2728)" fill="#FFFFFF" font-family="'CharmeStd'" font-size="15.8541">bakery</text>
</svg>
